<?xml version="1.0" encoding="UTF-8"?>
<!DOCTYPE svg PUBLIC "-//W3C//DTD SVG 1.1//EN" "http://www.w3.org/Graphics/SVG/1.1/DTD/svg11.dtd">
<svg version="1.1" xmlns="http://www.w3.org/2000/svg" xmlns:xlink="http://www.w3.org/1999/xlink" x="0" y="0" width="944" height="704" viewBox="0, 0, 944, 704">
  <g id="Background">
    <rect x="0" y="0" width="944" height="704" fill="#FFFFFF" fill-opacity="0"/>
  </g>
  <g id="Layer_1"/>
  <g id="Layer_2">
    <path d="M2.551,-271.302 L2.551,-271.302" fill-opacity="0" stroke="#000000" stroke-width="4.5" stroke-linecap="round" stroke-linejoin="round"/>
    <g>
      <path d="M510.372,161.468 C515.448,162.702 517.761,160.074 521.243,159.378 C528.926,157.841 538.428,160.365 546.329,159.378 C568.714,156.58 591.305,161.01 610.925,171.712 C615.386,174.145 620.319,176.162 624.305,178.819 C626.171,180.064 627.109,182.878 628.695,184.464 C629.551,185.321 631.157,186.231 631.621,187.391 C635.536,197.177 632.231,208.402 633.921,218.539 C634.021,219.141 634.282,224.839 633.921,225.019 C633.163,225.399 625.771,219.335 624.096,218.33 C614.602,212.633 604.415,208.64 593.783,205.369 C590.769,204.441 587.418,204.565 584.376,203.696 C576.405,201.419 566.472,200.163 559.29,204.951 C557.602,206.076 553.11,207.485 552.182,209.341 C551.232,211.242 552.365,217.838 552.182,220.211 C551.985,222.772 551.403,225.414 550.928,227.946 C549.878,233.548 549.161,239.1 547.374,244.461 C546.704,246.473 547.065,249.043 546.538,251.151 C545.4,255.704 543.864,260.255 543.193,264.948 C542.048,272.964 544.078,282.684 545.075,290.661 C545.34,292.781 546.688,294.604 547.165,296.514 C548.334,301.188 544.129,307.041 542.984,312.193 C542.615,313.856 535.506,329.219 535.04,329.335 C533.607,329.694 533.66,325.776 533.577,324.945 C533.338,322.552 532.326,320.574 531.905,318.256 C531.178,314.26 530.859,309.543 530.859,305.504 C530.859,296.827 530.771,287.776 529.814,279.163 C529.127,272.982 527.505,266.04 528.769,259.722 C529.66,255.267 530.065,250.919 530.859,246.552 C532.805,235.848 538.53,225.41 536.922,214.149 C536.359,210.212 533.9,193.085 532.741,191.153 C527.422,182.289 525.103,169.798 516.226,163.141 C511.395,159.518 503.183,158.124 497.202,158.124 C495.216,158.124 484.981,157.593 484.241,158.333 C483.756,158.818 483.288,160.397 483.614,161.05 C483.737,161.296 484.643,161.604 484.868,161.886 C487.449,165.113 489.939,168.439 492.394,171.712 C494.046,173.914 496.319,175.451 497.829,177.565 C500.447,181.23 503.867,184.562 506.191,188.436 C509.994,194.774 516.014,213.717 517.689,221.257 C518.529,225.035 518.602,229.164 519.362,232.963 C521.318,242.747 519.513,253.139 520.616,263.067 C521.341,269.59 525.607,275.06 526.887,281.463 C528.524,289.647 529.396,298.519 529.396,306.967 C529.396,315.324 529.991,323.928 529.396,332.262 C529.244,334.387 529.107,337.153 528.56,339.161 C528.243,340.321 528.224,343.882 527.933,342.715 C527.07,339.263 530.759,331.526 533.368,328.917" fill-opacity="0" stroke="#000000" stroke-width="4.5" stroke-linecap="round" stroke-linejoin="round"/>
      <g>
        <path d="M488.635,158.527 C495.117,159.57 502.479,157.63 508.713,159.708 C512.275,160.895 517.568,168.267 520.051,171.164 C530.74,183.634 533.827,199.744 535.287,215.808 C535.601,219.259 536.57,223.33 535.878,226.792 C535.127,230.546 533.204,236.603 532.807,239.784 C532.082,245.584 529.433,250.984 528.319,256.555 C527.058,262.861 526.075,269.588 526.075,276.043 C526.075,279.944 525.472,283.783 526.901,287.499 C527.423,288.855 527.96,290.176 528.555,291.515 C528.781,292.024 528.791,293.725 528.791,293.168 C528.791,284.113 523.195,276.764 521.469,268.13 C520.433,262.952 521.701,257.208 521.35,251.949 C520.666,241.68 520.447,231.335 518.988,221.123 C518.268,216.078 515.458,211.672 514.382,206.832 C509.425,184.523 500.038,174.266 486.037,157.464" fill="#000000"/>
        <path d="M488.635,158.527 C495.117,159.57 502.479,157.63 508.713,159.708 C512.275,160.895 517.568,168.267 520.051,171.164 C530.74,183.634 533.827,199.744 535.287,215.808 C535.601,219.259 536.57,223.33 535.878,226.792 C535.127,230.546 533.204,236.603 532.807,239.784 C532.082,245.584 529.433,250.984 528.319,256.555 C527.058,262.861 526.075,269.588 526.075,276.043 C526.075,279.944 525.472,283.783 526.901,287.499 C527.423,288.855 527.96,290.176 528.555,291.515 C528.781,292.024 528.791,293.725 528.791,293.168 C528.791,284.113 523.195,276.764 521.469,268.13 C520.433,262.952 521.701,257.208 521.35,251.949 C520.666,241.68 520.447,231.335 518.988,221.123 C518.268,216.078 515.458,211.672 514.382,206.832 C509.425,184.523 500.038,174.266 486.037,157.464" fill-opacity="0" stroke="#000000" stroke-width="4.5" stroke-linecap="round" stroke-linejoin="round"/>
      </g>
      <path d="M536.312,174.83 C537.245,174.052 537.64,172.956 538.495,172.102" fill-opacity="0" stroke="#000000" stroke-width="4.5" stroke-linecap="round" stroke-linejoin="round"/>
      <path d="M549.407,184.379 C552.157,181.044 554.323,173.054 557.865,171.283" fill-opacity="0" stroke="#000000" stroke-width="4.5" stroke-linecap="round" stroke-linejoin="round"/>
      <path d="M560.047,191.199 C567.837,188.28 585.505,177.159 594.422,175.376" fill-opacity="0" stroke="#000000" stroke-width="4.5" stroke-linecap="round" stroke-linejoin="round"/>
      <path d="M599.606,228.848 C604.278,250.483 613.731,270.547 622.25,290.777 C624.158,295.31 625.248,300.389 627.706,304.691 C631.021,310.492 634.745,316.005 638.346,321.605 C639.646,323.628 640.478,325.9 641.892,327.88 C648.819,337.578 659.309,343.621 668.083,351.342 C670.244,353.244 690.719,371.074 692.091,371.531" fill-opacity="0" stroke="#000000" stroke-width="4.5" stroke-linecap="round" stroke-linejoin="round"/>
      <path d="M636.163,223.937 C641.017,236.98 646.727,249.528 651.987,262.677 C655.652,271.841 660.242,282.066 665.082,290.777 C666.379,293.112 668.415,295.463 669.447,297.87 C672.294,304.513 674.638,311.798 677.904,318.332 C677.883,319.824 679.509,320.049 680.087,321.06 C683.045,326.236 688.353,334.782 692.636,339.066 C694.529,340.959 692.164,337.436 694.819,340.975 C695.377,341.72 695.817,343.065 696.456,343.704 C698.085,345.333 700.726,346.337 702.458,348.069 C705.64,351.251 709.806,354.592 712.279,357.89 C714.132,360.361 717.966,362.213 720.191,364.438 C723.002,367.249 725.301,370.639 728.102,373.441 C728.838,374.176 730.238,374.833 730.831,375.623 C733.537,379.231 736.414,383.202 738.742,387.081 C740.27,389.627 743.205,391.817 745.29,393.902 C745.95,394.562 758.794,412.499 759.749,414.09 C762.905,419.35 766.221,425.707 769.571,430.732 C771.322,433.359 783.211,452.161 783.211,453.649 C783.211,454.426 781.746,453.129 781.029,452.83 C778.149,451.63 774.687,450.689 771.753,450.102 C763.699,448.491 758.742,455.219 753.202,459.651 C746.111,465.323 739.465,472.252 733.832,479.293 C732.516,480.938 730.413,488.617 730.012,491.025 C729.619,493.384 729.815,500.715 730.012,500.846 C730.597,501.236 733.264,502.442 734.104,501.937 C735.701,500.98 735.974,498.625 737.378,497.572 C739.336,496.104 741.706,494.765 743.653,493.207 C744.83,492.265 745.133,490.402 746.654,489.388" fill-opacity="0" stroke="#000000" stroke-width="4.5" stroke-linecap="round" stroke-linejoin="round"/>
      <path d="M728.921,500.3 C725.426,497.348 722.365,493.582 718.827,490.752 C716.926,489.231 714.268,488.258 712.279,486.932 C709.51,485.087 707.147,482.201 704.64,480.112 C701.99,477.903 698.117,476.993 695.364,474.928 C693.786,473.744 692.476,472.149 690.999,470.836 C688.086,468.246 684.705,466.401 681.724,464.016 C672.045,456.273 661.145,442.868 653.078,433.187 C650.867,430.535 650.293,426.604 648.44,423.639 C645.513,418.955 642.246,414.407 639.437,409.725 C636.912,405.517 635.283,400.351 632.617,396.084 C631.049,393.577 629.023,391.262 627.433,388.718 C625.539,385.688 616.915,365.04 617.612,362.255 C618.648,358.108 632.862,353.716 636.709,352.434" fill-opacity="0" stroke="#000000" stroke-width="4.5" stroke-linecap="round" stroke-linejoin="round"/>
      <path d="M656.079,410.816 C662.697,414.908 669.937,417.473 676.813,420.911" fill-opacity="0" stroke="#000000" stroke-width="4.5" stroke-linecap="round" stroke-linejoin="round"/>
      <path d="M637.254,404.542 C633.432,402.746 630.541,399.59 627.16,397.176 C613.526,387.437 609.968,384.137 603.152,368.803 C601.371,364.795 598.29,361.534 596.332,357.617" fill-opacity="0" stroke="#000000" stroke-width="4.5" stroke-linecap="round" stroke-linejoin="round"/>
      <path d="M601.243,370.167 C591.058,363.488 582.345,355.907 573.688,347.25 C570.622,344.184 562.76,330.315 559.502,325.97 C557.675,323.535 547.076,310.245 546.406,308.237" fill-opacity="0" stroke="#000000" stroke-width="4.5" stroke-linecap="round" stroke-linejoin="round"/>
      <path d="M581.327,316.422 C581.892,311.72 584.055,307.264 584.055,302.508" fill-opacity="0" stroke="#000000" stroke-width="4.5" stroke-linecap="round" stroke-linejoin="round"/>
      <path d="M712.552,475.474 C712.811,470.554 714.846,466.136 716.371,461.56" fill-opacity="0" stroke="#000000" stroke-width="4.5" stroke-linecap="round" stroke-linejoin="round"/>
      <path d="M733.832,448.465 C737.329,446.265 741.605,445.283 745.017,443.009" fill-opacity="0" stroke="#000000" stroke-width="4.5" stroke-linecap="round" stroke-linejoin="round"/>
      <path d="M780.222,452.84 C783.261,462.772 790.58,470.048 795.715,478.606 C797.843,482.152 810.692,496.315 813.734,498.141 C816.19,499.615 824.057,506.264 825.186,509.087 C826.325,511.934 826.647,516.037 826.197,519.192 C824.692,529.724 817.45,533.833 810.535,540.748 C809.339,541.944 807.203,542.454 805.819,543.442 C803.798,544.886 802.607,546.917 800.767,548.494 C796.716,551.967 780.556,563.694 776.18,565.335 C766.765,568.866 756.142,569.377 746.035,569.377 C743.243,569.377 732.335,570.392 730.71,569.377 C728.817,568.194 727.55,566.722 726.163,565.335 C724.776,563.948 719.39,566.14 717.574,564.325 C716.474,563.224 716.683,560.203 716.396,558.767 C714.366,548.62 719.055,548.051 725.658,542.769 C731.308,538.249 735.975,532.789 741.151,527.612 C745.581,523.183 750.923,522.383 754.455,515.318 C755.722,512.786 756.774,502.652 755.634,499.993 C753.061,493.99 743.88,479.605 739.973,474.396" fill-opacity="0" stroke="#000000" stroke-width="4.5" stroke-linecap="round" stroke-linejoin="round"/>
      <path d="M491.074,155.159 C493.958,147.782 504.089,145.423 508.017,140.185 C510.08,137.435 530.632,137.505 534.418,139.397 C537.794,141.086 541.935,146.16 545.057,148.657 C545.503,149.014 546.266,155.234 553.134,157.523" fill-opacity="0" stroke="#000000" stroke-width="4.5" stroke-linecap="round" stroke-linejoin="round"/>
      <path d="M469.07,199.891 C468.993,211.83 469.328,223.789 468.7,235.708 C468.518,239.167 467.593,242.591 467.593,246.047" fill-opacity="0" stroke="#000000" stroke-width="4.5" stroke-linecap="round" stroke-linejoin="round"/>
      <path d="M439.899,235.708 C442.297,242.98 443.956,250.455 445.438,257.862 C446.087,261.11 447.669,264.209 448.392,267.463 C449.066,270.498 448.625,273.663 449.13,276.694 C450.643,285.769 451.158,294.949 452.454,304.018 C453.178,309.092 455.419,314.07 456.146,319.157 C457.992,332.08 460.764,345.724 459.1,359.035 C458.532,363.58 451.928,376.332 449.5,381.19 C447.871,384.447 448.442,388.794 447.284,392.267" fill-opacity="0" stroke="#000000" stroke-width="4.5" stroke-linecap="round" stroke-linejoin="round"/>
      <path d="M438.422,360.881 C438.75,366.506 437.87,372.338 438.792,377.866 C439.036,379.33 442.695,387.362 443.592,390.051 C443.964,391.168 445.066,392.259 445.438,393.375 C445.899,394.757 445.493,396.438 446.176,397.806 C447.412,400.277 448.302,402.806 448.761,405.56 C449.264,408.579 451.811,413.49 450.238,416.637 C448.95,419.213 446.39,421.534 445.438,424.391 C444.427,427.423 443.888,431.789 441.745,434.361 C439.728,436.782 436.41,439.072 433.991,441.007 C430.988,443.41 434.889,439.002 431.776,442.115 C431.02,442.87 430.083,444.533 429.191,445.069 C428.068,445.742 425.968,445.035 424.76,445.438 C418.774,447.433 412.419,450.607 405.929,450.607" fill-opacity="0" stroke="#000000" stroke-width="4.5" stroke-linecap="round" stroke-linejoin="round"/>
      <path d="M405.517,451.795 C397.301,449.773 392.168,456.742 384.646,457.996 C380.701,458.654 380.118,455.732 377.386,454.367 C376.511,453.929 373.926,453.79 372.849,453.61 C369.384,453.033 365.722,453.395 362.262,452.703 C355.387,451.328 341.383,445.133 336.552,440.301 C333.763,437.513 330.724,434.056 328.536,430.773 C327.359,429.007 326.968,426.507 325.663,424.875 C324.693,423.663 318.71,410.349 319.613,408.995 C320.066,408.315 325.087,408.23 326.116,407.936 C330.199,406.77 333.716,403.596 337.61,402.038 C339.958,401.099 343.163,402.379 345.626,401.887 C349.201,401.172 356.737,390.241 363.926,390.241" fill-opacity="0" stroke="#000000" stroke-width="4.5" stroke-linecap="round" stroke-linejoin="round"/>
      <path d="M356.213,401.282 C357.096,404.323 358.221,407.327 359.086,410.356" fill-opacity="0" stroke="#000000" stroke-width="4.5" stroke-linecap="round" stroke-linejoin="round"/>
      <path d="M337.157,407.483 C338.68,414.414 342.081,423.728 348.046,428.202" fill-opacity="0" stroke="#000000" stroke-width="4.5" stroke-linecap="round" stroke-linejoin="round"/>
      <path d="M386.007,420.338 C391.706,424.903 399.166,427.674 404.912,431.983" fill-opacity="0" stroke="#000000" stroke-width="4.5" stroke-linecap="round" stroke-linejoin="round"/>
      <path d="M383.436,426.236 C383.554,429.023 384.398,432.443 386.007,434.857" fill-opacity="0" stroke="#000000" stroke-width="4.5" stroke-linecap="round" stroke-linejoin="round"/>
      <path d="M376.63,420.489 C365.419,412.982 366.606,404.92 364.985,393.569 C364.385,389.371 362.166,385.677 361.355,381.621 C361.1,380.344 362.026,367.242 362.262,365.59 C362.658,362.823 363.901,359.439 365.136,356.969 C369.076,349.089 380.292,343.007 385.402,335.342" fill-opacity="0" stroke="#000000" stroke-width="4.5" stroke-linecap="round" stroke-linejoin="round"/>
      <path d="M363.17,369.673 C365.651,374.13 367.765,377.869 372.244,380.108" fill-opacity="0" stroke="#000000" stroke-width="4.5" stroke-linecap="round" stroke-linejoin="round"/>
      <path d="M385.402,388.427 C390.314,388.434 396.632,385.879 401.131,388.578" fill-opacity="0" stroke="#000000" stroke-width="4.5" stroke-linecap="round" stroke-linejoin="round"/>
      <path d="M359.691,380.562 C349.655,381.866 348.613,376.441 342.601,370.429 C337.743,365.571 332.5,361.056 329.897,354.549 C326.164,345.216 328.313,327.993 326.721,317.647 C326.475,316.049 325.527,314.767 325.36,313.261 C324.572,306.169 323.708,298.708 321.73,291.785 C319.58,284.259 316.851,277.007 316.286,269.099 C315.898,263.667 315.814,257.765 316.135,252.312 C316.396,247.875 317.647,243.793 317.647,239.305" fill-opacity="0" stroke="#000000" stroke-width="4.5" stroke-linecap="round" stroke-linejoin="round"/>
      <path d="M327.175,337.157 C326.446,331.878 322.296,328.37 319.764,324.15 C318.076,321.336 316.655,318.05 314.773,315.227 C311.304,310.023 305.539,306.367 302.069,301.162 C296.538,292.865 291.586,284.176 284.526,277.115 C280.565,273.154 274.645,269.624 269.553,267.587 C267.878,266.917 265.808,266.701 264.26,265.772 C263.608,265.381 262.398,264.574 262.142,263.806 C261.483,261.827 267.023,259.853 268.192,259.269 C272.764,256.983 278.712,251.676 284.223,252.463 C287.557,252.939 291.088,256.824 293.903,258.513" fill-opacity="0" stroke="#000000" stroke-width="4.5" stroke-linecap="round" stroke-linejoin="round"/>
      <path d="M459.563,364.532 C467.392,359.594 478.114,359.557 484.955,352.716 C491.998,345.672 491.723,333.184 494.005,324.056 C495.641,317.514 499.247,311.696 501.547,305.452 C503.503,300.144 503.548,294.422 505.318,289.111" fill-opacity="0" stroke="#000000" stroke-width="4.5" stroke-linecap="round" stroke-linejoin="round"/>
      <path d="M495.262,336.626 C501.279,332.589 505.801,327.153 507.581,320.034 C508.182,317.628 507.842,314.706 508.335,312.24 C508.991,308.96 510.203,305.665 510.849,302.436 C512.071,296.328 517.637,291.044 517.637,284.586" fill-opacity="0" stroke="#000000" stroke-width="4.5" stroke-linecap="round" stroke-linejoin="round"/>
      <path d="M510.095,320.285 C511.87,318.494 514.223,317.439 515.877,315.509 C518.779,312.123 526.271,294.964 527.19,290.368" fill-opacity="0" stroke="#000000" stroke-width="4.5" stroke-linecap="round" stroke-linejoin="round"/>
      <path d="M506.575,244.613 C503.144,257.714 492.382,274.853 489.731,288.106" fill-opacity="0" stroke="#000000" stroke-width="4.5" stroke-linecap="round" stroke-linejoin="round"/>
      <path d="M338.638,319.028 C340.772,306.329 346.428,294.652 350.454,282.575" fill-opacity="0" stroke="#000000" stroke-width="4.5" stroke-linecap="round" stroke-linejoin="round"/>
      <path d="M455.792,413.556 C484.434,408.708 514.227,410.288 543.532,410.288 C546.199,410.288 565.998,410.471 566.912,409.785 C567.668,409.218 567.556,403.483 567.666,402.494 C568.252,397.225 567.799,391.891 568.672,386.656 C569.533,381.489 570.819,376.54 571.689,371.32 C572.406,367.014 570.874,362.261 571.94,357.996 C572.493,355.786 573.648,353.678 574.203,351.459" fill-opacity="0" stroke="#000000" stroke-width="4.5" stroke-linecap="round" stroke-linejoin="round"/>
      <path d="M514.62,319.531 C514.339,324.656 512.463,329.524 510.849,334.364 C510.647,334.969 509.548,335.795 510.095,336.124 C511.59,337.021 524.245,335.872 526.939,335.872" fill-opacity="0" stroke="#000000" stroke-width="4.5" stroke-linecap="round" stroke-linejoin="round"/>
      <path d="M451.015,186.036 C451.188,194.101 450.009,202.12 450.009,210.171" fill-opacity="0" stroke="#000000" stroke-width="4.5" stroke-linecap="round" stroke-linejoin="round"/>
      <path d="M564.089,337.446 C555.621,340.826 547.289,343.92 537.981,341.851 C537.627,341.772 535.844,341.732 535.534,341.525 C533.905,340.439 537.818,328.558 537.818,326.024" fill-opacity="0" stroke="#000000" stroke-width="4.5" stroke-linecap="round" stroke-linejoin="round"/>
      <path d="M686.792,329.777 C693.649,326.728 697.518,319.814 702.946,314.928 C704.86,313.205 707.201,312.472 709.146,311.012" fill-opacity="0" stroke="#000000" stroke-width="4.5" stroke-linecap="round" stroke-linejoin="round"/>
      <path d="M694.298,324.555 C694.805,324.391 695.058,323.479 695.44,323.25 C696.314,322.725 697.723,322.761 698.704,322.434 C703.553,320.818 708.666,318.673 712.247,315.091 C713.575,313.763 716.487,314.441 717.794,313.133 C721.973,308.955 722.137,301.93 718.284,297.306 C715.238,293.65 709.669,290.785 706.536,287.026 C705.441,285.712 704.863,284.027 703.925,282.621 C701.247,278.603 694.621,272.258 689.729,271.036 C686.455,270.217 671.459,270.627 668.517,271.362 C665.798,272.042 662.308,272.667 659.543,272.667" fill-opacity="0" stroke="#000000" stroke-width="4.5" stroke-linecap="round" stroke-linejoin="round"/>
      <path d="M696.746,271.688 C703.162,271.782 708.304,267.572 713.389,264.182 C715.11,263.035 717.123,262.32 718.773,261.082 C720.869,259.511 722.461,257.318 724.648,255.861 C729.322,252.744 738.077,247.22 741.128,242.644 C746.741,234.224 764.208,211.829 776.372,215.884 C778.352,216.544 779.664,218.108 781.268,219.311 C782.533,220.259 785.195,218.996 786.163,219.963 C789.349,223.149 789.426,227.368 789.426,231.548 C789.426,234.25 790.141,238.604 788.937,241.012 C787.832,243.221 785.906,244.714 784.368,246.56 C783.101,248.08 782.12,250.088 781.104,251.782 C778.708,255.776 770.411,260.191 767.072,263.53 C765.602,265 764.421,266.662 762.829,267.935 C760.067,270.145 756.436,270.962 753.692,273.157 C751.633,274.804 749.268,276.312 747.165,277.889 C743.459,280.668 740.581,284.776 736.559,287.189 C730.556,290.791 722.646,289.728 716.815,293.227" fill-opacity="0" stroke="#000000" stroke-width="4.5" stroke-linecap="round" stroke-linejoin="round"/>
      <path d="M685.65,281.478 C693.351,289.519 700.996,291.342 705.72,302.364" fill-opacity="0" stroke="#000000" stroke-width="4.5" stroke-linecap="round" stroke-linejoin="round"/>
      <path d="M487.798,162.159 C473.291,154.124 451.303,160.692 437.699,167.494 C432.43,170.129 428.231,173.279 422.624,175.148 C417.554,176.838 402.379,180.214 396.879,180.714 C394.059,180.971 389.708,180.772 387.137,181.874 C378.343,185.643 369.258,188.562 360.465,192.079 C358.827,192.734 356.863,192.892 355.13,193.239 C350.087,194.248 342.475,198.422 336.575,199.733 C328.758,201.47 320.716,202.144 312.918,204.372 C306.48,206.211 300.132,208.065 293.899,210.402 C290.504,211.675 286.637,213.97 282.998,214.577 C275.644,215.803 262.102,220.502 255.398,223.854 C249.486,226.81 245.895,231.938 241.481,236.611 C239.268,238.954 236.258,241.025 234.523,243.801 C231.895,248.007 221.197,261.48 219.911,264.907 C218.469,268.754 217.711,272.667 216.432,276.504" fill-opacity="0" stroke="#000000" stroke-width="4.5" stroke-linecap="round" stroke-linejoin="round"/>
      <path d="M267.458,265.603 C254.935,266.083 241.586,263.613 229.653,268.386 C226.05,269.827 222.524,272.298 219.216,273.953 C217.615,274.753 216.604,276.987 215.273,278.127 C213.762,279.423 211.101,280.751 209.938,282.302 C205.179,288.648 201.044,295.376 198.109,302.713 C195.578,309.041 197.205,316.151 196.022,322.659 C194.496,331.055 194.541,340.911 199.037,348.404 C203.543,355.914 209.891,361.276 216.432,366.727 C218.12,368.133 218.293,370.75 219.911,371.83 C220.351,372.122 221.687,371.88 222.231,372.061 C223.75,372.568 225.075,374.068 226.638,374.381 C235.38,376.129 254.408,379.403 263.284,377.628 C265.725,377.14 268.457,376.7 270.937,376.7 C272.76,376.7 275.209,376.26 276.968,376.7 C279.964,377.449 283.105,379.388 286.709,378.788 C288.187,378.541 289.121,376.552 290.42,375.772 C292.035,374.803 294.895,374.864 296.682,374.149 C299.491,373.026 301.624,370.583 304.568,369.742 C307.275,368.969 310.462,368.487 312.454,366.495 C315.291,363.658 323.025,356.317 323.819,352.347 C324.377,349.555 325.717,342.056 326.834,339.822" fill-opacity="0" stroke="#000000" stroke-width="4.5" stroke-linecap="round" stroke-linejoin="round"/>
      <path d="M192.54,317.267 C184.26,321.375 176.365,325.709 168.782,331.126 C166.252,332.933 165.128,335.668 163.338,338.055 C161.69,340.252 159.332,342.332 157.894,344.489 C151.516,354.055 149.974,371.812 149.974,383.095 C149.974,387.034 149.028,392.179 149.974,395.964 C151.78,403.185 159.227,414.596 165.07,418.979 C168.149,421.288 172.869,422.136 176.454,423.928 C179.997,425.7 183.4,427.649 186.848,429.373 C190.466,431.182 196.741,430.115 200.707,430.115 C205.502,430.115 209.482,429.941 214.07,428.63 C215.967,428.088 234.786,417.318 235.848,416.257 C237.592,414.512 244.526,408.065 245.499,406.605 C245.73,406.26 245.471,405.58 245.747,405.12 C250.669,396.916 255.309,388.897 257.626,379.63" fill-opacity="0" stroke="#000000" stroke-width="4.5" stroke-linecap="round" stroke-linejoin="round"/>
      <path d="M319.742,416.009 C316.697,417.259 313.918,417.989 310.585,417.989 C303.493,417.989 297.318,417.117 290.54,415.762 C286.28,414.91 274.273,406.066 270.494,408.585 C269.416,409.304 267.496,412.176 268.515,413.534 C271.025,416.881 277.05,417.028 280.641,419.721 C285.407,423.296 286.938,427.042 293.014,431.6 C295.586,433.529 296.479,442.643 296.479,445.953 C296.479,446.336 296.273,449.845 296.479,449.913 C297.033,450.098 304.33,447.699 305.636,447.438 C308.114,446.943 332.088,447.512 334.095,448.181" fill-opacity="0" stroke="#000000" stroke-width="4.5" stroke-linecap="round" stroke-linejoin="round"/>
      <path d="M335.387,448.029 C339.905,448.826 344.557,448.586 349.158,448.586" fill-opacity="0" stroke="#000000" stroke-width="4.5" stroke-linecap="round" stroke-linejoin="round"/>
      <path d="M274.288,416.737 C270.039,416.264 271.972,419.677 271.059,421.96 C270.751,422.73 266.568,422.228 265.646,423.764 C264.462,425.737 266.299,430.15 265.741,431.267 C264.978,432.792 261.79,431.865 260.992,433.261 C260.559,434.02 260.524,438.784 260.233,438.959 C257.931,440.34 255.537,438.297 254.915,443.897 C254.348,448.994 257.629,451.085 259.473,455.388 C260.154,456.976 263.522,464.819 263.841,465.075 C266.101,466.883 271.9,471.771 275.047,469.253 C276.409,468.164 276.012,466.291 276.947,465.17 C277.406,464.618 281.781,465.647 282.74,465.36 C288.131,463.742 286.5,462.108 287.773,460.516 C288.467,459.649 291.596,460.31 292.711,459.567 C294.682,458.253 296.51,452.014 296.51,449.595" fill-opacity="0" stroke="#000000" stroke-width="4.5" stroke-linecap="round" stroke-linejoin="round"/>
      <path d="M259.568,464.505 C257.472,464.598 255.53,464 253.49,463.745 C240.602,462.134 238.675,455.104 240.575,443.707 C240.971,441.327 240.524,437.226 243.803,436.68 C248.655,435.871 249.934,440.137 253.205,442.473" fill-opacity="0" stroke="#000000" stroke-width="4.5" stroke-linecap="round" stroke-linejoin="round"/>
      <path d="M195.656,430.507 C202.486,430.585 208.48,437.308 214.744,439.814 C222.206,442.798 232.684,449.552 239.72,453.774" fill-opacity="0" stroke="#000000" stroke-width="4.5" stroke-linecap="round" stroke-linejoin="round"/>
      <path d="M265.456,414.553 C261.529,415.813 258.775,420.135 255.009,421.39 C248.575,423.535 246.251,423.093 243.329,430.887" fill-opacity="0" stroke="#000000" stroke-width="4.5" stroke-linecap="round" stroke-linejoin="round"/>
      <path d="M243.424,415.312 C246.844,418.712 251.797,421.39 256.719,421.39" fill-opacity="0" stroke="#000000" stroke-width="4.5" stroke-linecap="round" stroke-linejoin="round"/>
      <path d="M249.027,415.312 C253.869,412.901 258.038,414.644 262.607,416.357" fill-opacity="0" stroke="#000000" stroke-width="4.5" stroke-linecap="round" stroke-linejoin="round"/>
      <path d="M255.864,391.381 C255.934,395.542 256.648,399.717 257.953,403.632" fill-opacity="0" stroke="#000000" stroke-width="4.5" stroke-linecap="round" stroke-linejoin="round"/>
      <path d="M261.942,385.873 C263.63,389.532 265.401,393.131 268.305,396.034" fill-opacity="0" stroke="#000000" stroke-width="4.5" stroke-linecap="round" stroke-linejoin="round"/>
      <path d="M219.082,268.94 C208.169,269.838 197.71,272.726 187.063,274.057 C183.804,274.464 180.337,273.56 177.12,274.203 C174.251,274.777 169.111,273.192 166.593,275.08 C165.096,276.203 164.782,277.928 164.108,279.613 C163.359,281.484 162.52,283.52 161.622,285.315 C159.906,288.747 159.536,307.136 160.16,311.194 C160.646,314.353 161.985,317.319 162.499,320.405 C163.068,323.814 163.754,327.739 165.277,330.786" fill-opacity="0" stroke="#000000" stroke-width="4.5" stroke-linecap="round" stroke-linejoin="round"/>
      <path d="M176.828,284.876 C176.547,288.427 175.658,291.835 175.658,295.403" fill-opacity="0" stroke="#000000" stroke-width="4.5" stroke-linecap="round" stroke-linejoin="round"/>
      <path d="M174.781,316.75 C174.916,318.716 175.043,322.432 176.828,323.622" fill-opacity="0" stroke="#000000" stroke-width="4.5" stroke-linecap="round" stroke-linejoin="round"/>
      <path d="M164.985,332.248 C150.644,335.655 130.195,341.103 118.783,350.232 C111.917,355.725 110.678,370.137 100.214,373.625 C97.95,374.38 83.552,381.964 82.962,381.374 C82.06,380.473 82.282,376.585 82.523,375.38" fill-opacity="0" stroke="#000000" stroke-width="4.5" stroke-linecap="round" stroke-linejoin="round"/>
      <path d="M86.032,373.187 C84.115,373.445 69.831,377.309 68.926,376.403 C68.347,375.824 68.451,374.147 67.756,373.625 C61.298,368.782 65.456,368.85 64.247,362.806 C63.771,360.424 62.041,359.539 61.469,357.25 C61.381,356.899 62.701,342.504 62.785,342.336 C63.561,340.784 65.754,340.222 67.171,339.412 C68.209,338.819 68.859,337.578 69.657,336.781 C71.754,334.683 88.126,327.876 91.296,327.423 C95.942,326.759 106.34,326.627 110.303,324.645 C112.314,323.64 114.528,321.579 116.59,320.99 C125.281,318.507 139.989,310.956 147.879,306.223 C151.088,304.297 155.172,303.554 157.967,301.69" fill-opacity="0" stroke="#000000" stroke-width="4.5" stroke-linecap="round" stroke-linejoin="round"/>
      <path d="M476.309,403.898 C484.344,398.776 493.649,396.98 502.439,393.757 C505.159,392.76 507.854,391.052 510.76,390.637" fill-opacity="0" stroke="#000000" stroke-width="4.5" stroke-linecap="round" stroke-linejoin="round"/>
      <path d="M452.779,414.818 C453.872,414.535 455.028,414.155 456.159,413.778" fill-opacity="0" stroke="#000000" stroke-width="4.5" stroke-linecap="round" stroke-linejoin="round"/>
      <path d="M474.879,383.097 C484.568,375.953 494.522,368.596 505.299,363.207" fill-opacity="0" stroke="#000000" stroke-width="4.5" stroke-linecap="round" stroke-linejoin="round"/>
      <path d="M511.8,375.557 C514.943,367.036 519.158,358.335 524.67,350.987 C526.317,348.791 528.377,346.693 529.61,344.226" fill-opacity="0" stroke="#000000" stroke-width="4.5" stroke-linecap="round" stroke-linejoin="round"/>
    </g>
  </g>
</svg>
